<mxfile host="app.diagrams.net" modified="2020-05-04T23:11:04.785Z" agent="5.0 (Windows NT 10.0; Win64; x64) AppleWebKit/537.36 (KHTML, like Gecko) Chrome/81.0.4044.129 Safari/537.36" etag="cFL45Gu0MQ2t1weQaT9s" version="13.0.5" type="github">
  <diagram id="bDqYkvWBrG-38hxG0tSv" name="Page-1">
    <mxGraphModel dx="1673" dy="896" grid="0" gridSize="10" guides="1" tooltips="1" connect="1" arrows="1" fold="1" page="1" pageScale="1" pageWidth="827" pageHeight="1169" background="#E6E6E6" math="0" shadow="0">
      <root>
        <mxCell id="0" />
        <mxCell id="1" parent="0" />
        <mxCell id="54VRiDwurtx1DASJ5PuG-1" value="" style="rounded=0;whiteSpace=wrap;html=1;strokeColor=none;" parent="1" vertex="1">
          <mxGeometry y="480" width="320" height="80" as="geometry" />
        </mxCell>
        <mxCell id="54VRiDwurtx1DASJ5PuG-2" value="" style="rounded=0;whiteSpace=wrap;html=1;fillColor=#FFDFDE;strokeColor=none;" parent="1" vertex="1">
          <mxGeometry y="400" width="320" height="80" as="geometry" />
        </mxCell>
        <mxCell id="54VRiDwurtx1DASJ5PuG-3" value="" style="rounded=0;whiteSpace=wrap;html=1;fillColor=#CC6E74;strokeColor=none;" parent="1" vertex="1">
          <mxGeometry y="320" width="320" height="80" as="geometry" />
        </mxCell>
        <mxCell id="54VRiDwurtx1DASJ5PuG-10" value="" style="rounded=0;whiteSpace=wrap;html=1;strokeColor=none;" parent="1" vertex="1">
          <mxGeometry x="440" y="480" width="320" height="80" as="geometry" />
        </mxCell>
        <mxCell id="54VRiDwurtx1DASJ5PuG-11" value="" style="rounded=0;whiteSpace=wrap;html=1;fillColor=#FFDFDE;strokeColor=none;" parent="1" vertex="1">
          <mxGeometry x="440" y="400" width="320" height="80" as="geometry" />
        </mxCell>
        <mxCell id="54VRiDwurtx1DASJ5PuG-12" value="" style="rounded=0;whiteSpace=wrap;html=1;fillColor=#CC6E74;strokeColor=none;" parent="1" vertex="1">
          <mxGeometry x="440" y="320" width="320" height="80" as="geometry" />
        </mxCell>
        <mxCell id="54VRiDwurtx1DASJ5PuG-13" value="" style="rounded=0;whiteSpace=wrap;html=1;fillColor=#B38BC4;strokeColor=none;" parent="1" vertex="1">
          <mxGeometry y="240" width="320" height="80" as="geometry" />
        </mxCell>
        <mxCell id="54VRiDwurtx1DASJ5PuG-14" value="" style="rounded=0;whiteSpace=wrap;html=1;fillColor=#815D99;strokeColor=none;" parent="1" vertex="1">
          <mxGeometry y="160" width="320" height="80" as="geometry" />
        </mxCell>
        <mxCell id="54VRiDwurtx1DASJ5PuG-15" value="" style="rounded=0;whiteSpace=wrap;html=1;fillColor=#774599;strokeColor=none;" parent="1" vertex="1">
          <mxGeometry y="80" width="320" height="80" as="geometry" />
        </mxCell>
        <mxCell id="54VRiDwurtx1DASJ5PuG-21" value="" style="rounded=0;whiteSpace=wrap;html=1;strokeColor=none;" parent="1" vertex="1">
          <mxGeometry x="440" y="240" width="320" height="80" as="geometry" />
        </mxCell>
        <mxCell id="54VRiDwurtx1DASJ5PuG-22" value="" style="rounded=0;whiteSpace=wrap;html=1;fillColor=#FFDFDE;strokeColor=none;" parent="1" vertex="1">
          <mxGeometry x="440" y="160" width="320" height="80" as="geometry" />
        </mxCell>
        <mxCell id="54VRiDwurtx1DASJ5PuG-23" value="" style="rounded=0;whiteSpace=wrap;html=1;fillColor=#CC6E74;strokeColor=none;" parent="1" vertex="1">
          <mxGeometry x="440" y="80" width="320" height="80" as="geometry" />
        </mxCell>
        <mxCell id="54VRiDwurtx1DASJ5PuG-24" value="" style="rounded=0;whiteSpace=wrap;html=1;strokeColor=none;" parent="1" vertex="1">
          <mxGeometry x="880" y="480" width="320" height="80" as="geometry" />
        </mxCell>
        <mxCell id="54VRiDwurtx1DASJ5PuG-25" value="" style="rounded=0;whiteSpace=wrap;html=1;fillColor=#FFDFDE;strokeColor=none;" parent="1" vertex="1">
          <mxGeometry x="880" y="400" width="320" height="80" as="geometry" />
        </mxCell>
        <mxCell id="54VRiDwurtx1DASJ5PuG-26" value="" style="rounded=0;whiteSpace=wrap;html=1;fillColor=#CC6E74;strokeColor=none;" parent="1" vertex="1">
          <mxGeometry x="880" y="320" width="320" height="80" as="geometry" />
        </mxCell>
        <mxCell id="54VRiDwurtx1DASJ5PuG-27" value="" style="rounded=0;whiteSpace=wrap;html=1;strokeColor=none;" parent="1" vertex="1">
          <mxGeometry x="880" y="300" width="320" height="20" as="geometry" />
        </mxCell>
        <mxCell id="54VRiDwurtx1DASJ5PuG-28" value="" style="rounded=0;whiteSpace=wrap;html=1;fillColor=#CC6E74;strokeColor=none;" parent="1" vertex="1">
          <mxGeometry x="880" y="220" width="320" height="80" as="geometry" />
        </mxCell>
        <mxCell id="54VRiDwurtx1DASJ5PuG-29" value="" style="rounded=0;whiteSpace=wrap;html=1;fillColor=#FFDFDE;strokeColor=none;" parent="1" vertex="1">
          <mxGeometry x="880" y="140" width="320" height="80" as="geometry" />
        </mxCell>
        <mxCell id="54VRiDwurtx1DASJ5PuG-30" value="" style="rounded=0;whiteSpace=wrap;html=1;strokeColor=none;" parent="1" vertex="1">
          <mxGeometry x="880" y="60" width="320" height="80" as="geometry" />
        </mxCell>
        <mxCell id="54VRiDwurtx1DASJ5PuG-31" value="" style="rounded=0;whiteSpace=wrap;html=1;strokeColor=none;" parent="1" vertex="1">
          <mxGeometry x="1280" y="480" width="320" height="80" as="geometry" />
        </mxCell>
        <mxCell id="54VRiDwurtx1DASJ5PuG-32" value="" style="rounded=0;whiteSpace=wrap;html=1;fillColor=#FFDFDE;strokeColor=none;" parent="1" vertex="1">
          <mxGeometry x="1280" y="400" width="320" height="80" as="geometry" />
        </mxCell>
        <mxCell id="54VRiDwurtx1DASJ5PuG-33" value="" style="rounded=0;whiteSpace=wrap;html=1;fillColor=#CC6E74;strokeColor=none;" parent="1" vertex="1">
          <mxGeometry x="1280" y="320" width="320" height="80" as="geometry" />
        </mxCell>
        <mxCell id="54VRiDwurtx1DASJ5PuG-34" value="" style="rounded=0;whiteSpace=wrap;html=1;fillColor=#750000;strokeColor=none;" parent="1" vertex="1">
          <mxGeometry x="1280" y="240" width="320" height="80" as="geometry" />
        </mxCell>
        <mxCell id="54VRiDwurtx1DASJ5PuG-35" value="" style="rounded=0;whiteSpace=wrap;html=1;fillColor=#CC6E74;strokeColor=none;" parent="1" vertex="1">
          <mxGeometry x="1280" y="160" width="320" height="80" as="geometry" />
        </mxCell>
        <mxCell id="54VRiDwurtx1DASJ5PuG-36" value="" style="rounded=0;whiteSpace=wrap;html=1;fillColor=#FFDFDE;strokeColor=none;" parent="1" vertex="1">
          <mxGeometry x="1280" y="80" width="320" height="80" as="geometry" />
        </mxCell>
        <mxCell id="54VRiDwurtx1DASJ5PuG-37" value="" style="rounded=0;whiteSpace=wrap;html=1;strokeColor=none;" parent="1" vertex="1">
          <mxGeometry x="1280" width="320" height="80" as="geometry" />
        </mxCell>
        <mxCell id="54VRiDwurtx1DASJ5PuG-38" value="" style="rounded=0;whiteSpace=wrap;html=1;strokeColor=none;" parent="1" vertex="1">
          <mxGeometry x="1680" y="480" width="320" height="80" as="geometry" />
        </mxCell>
        <mxCell id="54VRiDwurtx1DASJ5PuG-39" value="" style="rounded=0;whiteSpace=wrap;html=1;fillColor=#FFDFDE;strokeColor=none;" parent="1" vertex="1">
          <mxGeometry x="1680" y="400" width="320" height="80" as="geometry" />
        </mxCell>
        <mxCell id="54VRiDwurtx1DASJ5PuG-40" value="" style="rounded=0;whiteSpace=wrap;html=1;fillColor=#CC6E74;strokeColor=none;" parent="1" vertex="1">
          <mxGeometry x="1680" y="320" width="320" height="80" as="geometry" />
        </mxCell>
        <mxCell id="54VRiDwurtx1DASJ5PuG-42" value="" style="rounded=0;whiteSpace=wrap;html=1;fillColor=#CC6E74;strokeColor=none;" parent="1" vertex="1">
          <mxGeometry x="1680" y="240" width="320" height="80" as="geometry" />
        </mxCell>
        <mxCell id="54VRiDwurtx1DASJ5PuG-43" value="" style="rounded=0;whiteSpace=wrap;html=1;fillColor=#FFDFDE;strokeColor=none;" parent="1" vertex="1">
          <mxGeometry x="1680" y="160" width="320" height="80" as="geometry" />
        </mxCell>
        <mxCell id="54VRiDwurtx1DASJ5PuG-44" value="" style="rounded=0;whiteSpace=wrap;html=1;strokeColor=none;" parent="1" vertex="1">
          <mxGeometry x="1680" y="80" width="320" height="80" as="geometry" />
        </mxCell>
        <mxCell id="54VRiDwurtx1DASJ5PuG-45" value="A" style="rounded=1;whiteSpace=wrap;html=1;fontSize=36;" parent="1" vertex="1">
          <mxGeometry x="100" y="576" width="120" height="60" as="geometry" />
        </mxCell>
        <mxCell id="54VRiDwurtx1DASJ5PuG-46" value="B" style="rounded=1;whiteSpace=wrap;html=1;fontSize=36;" parent="1" vertex="1">
          <mxGeometry x="540" y="585" width="120" height="60" as="geometry" />
        </mxCell>
        <mxCell id="54VRiDwurtx1DASJ5PuG-47" value="C" style="rounded=1;whiteSpace=wrap;html=1;fontSize=36;" parent="1" vertex="1">
          <mxGeometry x="980" y="585" width="120" height="60" as="geometry" />
        </mxCell>
        <mxCell id="54VRiDwurtx1DASJ5PuG-48" value="D" style="rounded=1;whiteSpace=wrap;html=1;fontSize=36;" parent="1" vertex="1">
          <mxGeometry x="1380" y="585" width="120" height="60" as="geometry" />
        </mxCell>
        <mxCell id="54VRiDwurtx1DASJ5PuG-49" value="E" style="rounded=1;whiteSpace=wrap;html=1;fontSize=36;" parent="1" vertex="1">
          <mxGeometry x="1780" y="585" width="120" height="60" as="geometry" />
        </mxCell>
      </root>
    </mxGraphModel>
  </diagram>
</mxfile>
